<svg xmlns="http://www.w3.org/2000/svg" width="98" height="74" fill="none"><g fill="#ff4758"><circle cx="3.5" cy="3.5" r="3.5"/><circle cx="73" cy="56" r="10"/><circle cx="23.5" cy="21.5" r="13.5"/><circle cx="83.5" cy="69.5" r="4.5"/><circle cx="95" cy="67" r="3"/><circle cx="16" cy="7" r="6"/><circle cx="82.5" cy="13.5" r="5.5"/><circle cx="13.5" cy="56.5" r="2.5"/><circle cx="47.5" cy="35.5" r="33.5"/></g><g fill="#17181a"><path d="M47.5 69C29.028 69 14 53.972 14 35.5S29.028 2 47.5 2 81 17.028 81 35.5 65.972 69 47.5 69zm0-62.214c-15.833 0-28.714 12.88-28.714 28.714S31.667 64.214 47.5 64.214 76.214 51.333 76.214 35.5 63.333 6.786 47.5 6.786zm11.962 43.07a2.39 2.39 0 0 1-1.692-.7l-23.928-23.93a2.39 2.39 0 1 1 3.383-3.383l23.928 23.928a2.39 2.39 0 0 1 0 3.383 2.38 2.38 0 0 1-1.69.7h0z"/><path d="M35.533 49.857c-.612 0-1.224-.234-1.69-.7a2.39 2.39 0 0 1 0-3.383L57.77 21.844a2.39 2.39 0 1 1 3.383 3.383L37.225 49.156c-.467.468-1.08.7-1.692.7h0z"/></g></svg>