<svg xmlns="http://www.w3.org/2000/svg" width="20" height="20" fill="none" xmlns:v="https://vecta.io/nano"><g clip-path="url(#A)"><path d="M10.966 1.037l2.256 4.57c.157.318.46.538.81.59l5.044.733a1.08 1.08 0 0 1 .597 1.837l-3.65 3.558c-.254.247-.37.604-.3.953l.862 5.024a1.08 1.08 0 0 1-1.563 1.136l-4.51-2.372a1.08 1.08 0 0 0-1.003 0l-4.51 2.372a1.08 1.08 0 0 1-1.563-1.136l.86-5.024c.06-.35-.056-.706-.3-.953L.327 8.767A1.08 1.08 0 0 1 .924 6.93l5.044-.733c.35-.05.654-.27.81-.59l2.256-4.57a1.08 1.08 0 0 1 1.931 0z" fill="#5a5f63"/></g><defs><clipPath id="A"><path fill="#fff" d="M0 0h20v20H0z"/></clipPath></defs></svg>