<svg xmlns="http://www.w3.org/2000/svg" width="98" height="74" fill="none"><g fill="#30cc71"><circle cx="3.5" cy="3.5" r="3.5"/><circle cx="73" cy="56" r="10"/><circle cx="23.5" cy="21.5" r="13.5"/><circle cx="83.5" cy="69.5" r="4.5"/><circle cx="95" cy="67" r="3"/><circle cx="16" cy="7" r="6"/><circle cx="82.5" cy="13.5" r="5.5"/><circle cx="13.5" cy="56.5" r="2.5"/><circle cx="47.5" cy="35.5" r="33.5"/></g><path d="M47.5 2C29.028 2 14 17.028 14 35.5S29.028 69 47.5 69 81 53.972 81 35.5 65.972 2 47.5 2zm0 62.813c-16.163 0-29.312-13.15-29.312-29.312S31.337 6.188 47.5 6.188 76.813 19.337 76.813 35.5 63.663 64.813 47.5 64.813h0zm-4.188-21.805l-8.988-8.988-2.96 2.96 11.95 11.95 20.324-20.324-2.96-2.96L43.314 43z" fill="#17181a"/></svg>