<svg xmlns="http://www.w3.org/2000/svg" width="20" height="18" fill="none" xmlns:v="https://vecta.io/nano"><g clip-path="url(#A)"><path d="M10 17.794a1.17 1.17 0 0 1-.773-.29l-2.278-1.96-4.966-4.66C.63 9.25 0 7.702 0 6c0-1.643.564-3.16 1.587-4.27C2.622.618 4.043 0 5.587 0A5.03 5.03 0 0 1 8.73 1.085 6.43 6.43 0 0 1 10 2.411a6.43 6.43 0 0 1 1.271-1.327A5.03 5.03 0 0 1 14.413 0c1.544 0 2.965.618 4 1.74C19.437 2.85 20 4.367 20 6c0 1.7-.63 3.24-1.983 4.873-1.2 1.46-2.95 2.944-4.965 4.66l-2.28 1.96c-.214.187-.488.3-.773.3v-.01zM5.587 1.172a4.22 4.22 0 0 0-3.139 1.364C1.625 3.428 1.17 4.662 1.17 6c0 1.423.53 2.695 1.714 4.125 1.146 1.383 2.85 2.835 4.823 4.517l.004.003 2.286 1.966 2.293-1.97 4.823-4.516C18.3 8.705 18.83 7.433 18.83 6c0-1.348-.453-2.582-1.276-3.475-.8-.88-1.926-1.364-3.14-1.364-.9 0-1.705.283-2.426.84-.642.497-1.1 1.125-1.352 1.564a.73.73 0 0 1-.635.36c-.263 0-.5-.135-.635-.36-.262-.44-.7-1.068-1.352-1.564-.72-.557-1.537-.84-2.426-.84l-.001.001z" fill="#d81d2f"/></g><defs><clipPath id="A"><path fill="#fff" d="M0 0h20v18H0z"/></clipPath></defs></svg>