<svg width="147" height="62" viewBox="0 0 147 62" fill="none" xmlns="http://www.w3.org/2000/svg">
<path d="M143.444 2.0003L143.444 16.0003L116.444 16.0003C116.444 16.0003 112.578 5.86638 116.444 2.00013C117.444 1 143.444 2.0003 143.444 2.0003Z" fill="#B3B3B3"/>
<rect x="133.444" y="47" width="14" height="27" transform="rotate(90 133.444 47)" fill="#B3B3B3"/>
<path d="M116.444 2C116.444 2 112.773 4.0743 110.944 6C108.475 8.59906 107.229 10.5026 106.444 14C105.845 16.6672 105.86 18.3295 106.444 21C107.521 25.9227 109.623 28.9074 113.944 31.5C116.444 33 128.444 38 129.944 42C131.444 46 128.444 48 128.444 48C126.349 53.0198 129.444 61 133.444 61C137.444 61 144.419 54.8759 145.944 48C146.387 46 146.444 43.5 145.944 40.5C145.294 36.6 142.739 34.7957 139.944 32C136.944 29 123.444 23 121.944 20C120.444 17 121.944 16 121.944 16L116.444 2Z" fill="#B3B3B3"/>
<path d="M135.565 53.9838C135.565 53.9838 121.341 50.3437 123 48.9993C125.207 47.2106 128.814 47.3055 129.796 45.0146C130.726 42.8454 129.641 41.1167 128.517 38.431C127.623 36.2982 139.704 41.4662 139.704 41.4662L135.565 53.9838Z" fill="#B3B3B3"/>
<path d="M115.345 8.26748C115.345 8.26748 129.541 12.0135 127.872 13.3455C125.651 15.1177 122.046 14.9959 121.046 17.2794C120.1 19.4416 121.172 21.1784 122.277 23.8724C123.154 26.0118 111.113 20.7539 111.113 20.7539L115.345 8.26748Z" fill="#B3B3B3"/>
<rect x="68" y="2" width="14" height="46" fill="#B3B3B3"/>
<path d="M100 47L100 61L82 61C74.268 61 68 54.732 68 47V47L100 47Z" fill="#B3B3B3"/>
<path d="M76.1283 46.7227C76.1283 46.7227 81.6184 40.2175 81.8995 41.4637C82.2735 43.1219 81.5006 44.8729 82.4688 46.0075C83.3855 47.0817 84.6005 46.9583 86.3392 47.0673C87.7201 47.1538 81.7444 52.2625 81.7444 52.2625L76.1283 46.7227Z" fill="#B3B3B3"/>
<circle cx="31" cy="31" r="31" fill="#B3B3B3"/>
<path d="M25 40C23.35 40 22 41.35 22 43C22 44.65 23.35 46 25 46C26.65 46 28 44.65 28 43C28 41.35 26.65 40 25 40ZM16 16V19H19L24.4 30.4L22.3 34C22.15 34.45 22 35.05 22 35.5C22 37.15 23.35 38.5 25 38.5H43V35.5H25.6C25.45 35.5 25.3 35.35 25.3 35.2V35.0499L26.65 32.4999H37.75C38.95 32.4999 39.85 31.8999 40.3 30.9999L45.7 21.25C46 20.95 46 20.8 46 20.5C46 19.6 45.4 19 44.5 19H22.3L20.95 16H16ZM40 40C38.35 40 37 41.35 37 43C37 44.65 38.35 46 40 46C41.65 46 43 44.65 43 43C43 41.35 41.65 40 40 40Z" fill="white"/>
</svg>
